ModelForces
version=1
nRows=4
nColumns=155
inDegrees=no

This file contains the forces exerted on a model during a simulation.

A force is a generalized force, meaning that it can be either a force (N) or a torque (Nm).

Units are S.I. units (second, meters, Newtons, ...)
Angles are in degrees.

endheader
time	glut_med1_r	glut_med2_r	glut_med3_r	glut_min1_r	glut_min2_r	glut_min3_r	semimem_r	semiten_r	bifemlh_r	bifemsh_r	sar_r	add_long_r	add_brev_r	add_mag1_r	add_mag2_r	add_mag3_r	tfl_r	pect_r	grac_r	glut_max1_r	glut_max2_r	glut_max3_r	iliacus_r	psoas_r	quad_fem_r	gem_r	peri_r	rect_fem_r	vas_med_r	vas_int_r	vas_lat_r	med_gas_r	lat_gas_r	soleus_r	tib_post_r	flex_dig_r	flex_hal_r	tib_ant_r	per_brev_r	per_long_r	per_tert_r	ext_dig_r	ext_hal_r	glut_med1_l	glut_med2_l	glut_med3_l	glut_min1_l	glut_min2_l	glut_min3_l	semimem_l	semiten_l	bifemlh_l	bifemsh_l	sar_l	add_long_l	add_brev_l	add_mag1_l	add_mag2_l	add_mag3_l	tfl_l	pect_l	grac_l	glut_max1_l	glut_max2_l	glut_max3_l	iliacus_l	psoas_l	quad_fem_l	gem_l	peri_l	rect_fem_l	vas_med_l	vas_int_l	vas_lat_l	med_gas_l	lat_gas_l	soleus_l	tib_post_l	flex_dig_l	flex_hal_l	tib_ant_l	per_brev_l	per_long_l	per_tert_l	ext_dig_l	ext_hal_l	ercspn_r	ercspn_l	intobl_r	intobl_l	extobl_r	extobl_l	femur_lat_meniscii_r.femur_lat_r.force.X	femur_lat_meniscii_r.femur_lat_r.force.Y	femur_lat_meniscii_r.femur_lat_r.force.Z	femur_lat_meniscii_r.femur_lat_r.torque.X	femur_lat_meniscii_r.femur_lat_r.torque.Y	femur_lat_meniscii_r.femur_lat_r.torque.Z	femur_lat_meniscii_r.meniscus_lat_r.force.X	femur_lat_meniscii_r.meniscus_lat_r.force.Y	femur_lat_meniscii_r.meniscus_lat_r.force.Z	femur_lat_meniscii_r.meniscus_lat_r.torque.X	femur_lat_meniscii_r.meniscus_lat_r.torque.Y	femur_lat_meniscii_r.meniscus_lat_r.torque.Z	femur_med_meniscii_r.femur_med_r.force.X	femur_med_meniscii_r.femur_med_r.force.Y	femur_med_meniscii_r.femur_med_r.force.Z	femur_med_meniscii_r.femur_med_r.torque.X	femur_med_meniscii_r.femur_med_r.torque.Y	femur_med_meniscii_r.femur_med_r.torque.Z	femur_med_meniscii_r.meniscus_med_r.force.X	femur_med_meniscii_r.meniscus_med_r.force.Y	femur_med_meniscii_r.meniscus_med_r.force.Z	femur_med_meniscii_r.meniscus_med_r.torque.X	femur_med_meniscii_r.meniscus_med_r.torque.Y	femur_med_meniscii_r.meniscus_med_r.torque.Z	femur_med_tibia_r.tibia_upper_r.force.X	femur_med_tibia_r.tibia_upper_r.force.Y	femur_med_tibia_r.tibia_upper_r.force.Z	femur_med_tibia_r.tibia_upper_r.torque.X	femur_med_tibia_r.tibia_upper_r.torque.Y	femur_med_tibia_r.tibia_upper_r.torque.Z	femur_med_tibia_r.femur_med_r.force.X	femur_med_tibia_r.femur_med_r.force.Y	femur_med_tibia_r.femur_med_r.force.Z	femur_med_tibia_r.femur_med_r.torque.X	femur_med_tibia_r.femur_med_r.torque.Y	femur_med_tibia_r.femur_med_r.torque.Z	femur_lat_tibia_r.tibia_upper_r.force.X	femur_lat_tibia_r.tibia_upper_r.force.Y	femur_lat_tibia_r.tibia_upper_r.force.Z	femur_lat_tibia_r.tibia_upper_r.torque.X	femur_lat_tibia_r.tibia_upper_r.torque.Y	femur_lat_tibia_r.tibia_upper_r.torque.Z	femur_lat_tibia_r.femur_lat_r.force.X	femur_lat_tibia_r.femur_lat_r.force.Y	femur_lat_tibia_r.femur_lat_r.force.Z	femur_lat_tibia_r.femur_lat_r.torque.X	femur_lat_tibia_r.femur_lat_r.torque.Y	femur_lat_tibia_r.femur_lat_r.torque.Z	aACL_R	pACL_R	aPCL_R	pPCL_R	aMCL_R	mMCL_R	pMCL_R	aLCL_R	mLCL_R	pLCL_R	aPCL_L	pPCL_L	aMCL_L	aLCL_L
      0.16985853	     11.17949635	      8.16406477	      8.77852669	      3.77286872	      4.39096233	      4.73532645	      0.00000000	    166.40395102	    159.12673385	    312.52660057	    128.96350107	      8.12325613	      5.85694589	      4.02585312	      3.55861835	      5.98819769	      4.25574917	      3.18412918	     99.84762312	      5.27096778	      8.01808445	      6.02338577	     27.21270116	     18.14778922	      5.18571128	      3.60084234	      6.18027515	     58.03304143	     30.32644891	     32.70448659	     44.55518411	      0.00000000	      0.00000000	      0.00000000	      0.00000000	      0.00000000	      0.00000000	     40.61778947	      1.65764942	      1.61141837	     19.41698503	     40.13116651	     11.52120203	     11.17949635	      8.16406477	      8.77852669	      3.77286872	      4.39096233	      4.73532645	      0.00000000	      6.04146095	     11.92914361	     10.32123513	      2.15292376	      8.12325613	      5.85694589	      4.02585312	      3.55861835	      5.98819769	      5.33493584	      3.18412918	      2.22168564	      5.27096778	      8.01808445	      6.02338577	     27.21270116	     18.14778922	      5.18571128	      3.60084234	      6.18027515	     16.58574720	      0.00000000	      0.00000000	      0.00000000	     21.02509704	      9.91502686	     49.74566869	     50.43187916	      5.32509540	      4.76053443	     12.92313126	      6.90333958	     17.84807627	      2.80611976	      8.61903155	      2.71257461	     35.51115485	     35.51115485	     13.17213856	     13.17213856	     30.56440057	     30.56440057	      4.95840349	     40.44022984	      6.85610737	     -3.75889050	      0.14842699	      1.72659072	     -4.95840349	    -40.44022984	     -6.85610737	      1.18523623	     -0.31154288	      1.09682778	      0.85266287	      0.49533842	     -0.22061685	      0.09730523	     -0.01640278	      0.33968863	     -0.85266287	     -0.49533842	      0.22061685	     -0.01071940	      0.01952732	      0.00197259	   -267.62297124	   -572.85955259	    183.77372020	    -11.88995967	      8.71593744	      9.84799602	    267.62297124	    572.85955259	   -183.77372020	     84.35218882	     -5.18426494	    106.68503914	    -45.78519418	   -332.47404047	    -76.97651315	      9.95754541	     -3.36799729	      8.69733886	     45.78519418	    332.47404047	     76.97651315	    -39.10820379	      1.55736842	     16.46170734	     12.38501610	    -14.22236990	    228.95593406	    148.85572920	      0.00000000	      0.00000000	      0.00000000	      0.00000000	      0.00000000	      0.00000000	      0.00000000	      0.00000000	      0.00000001	      0.00000000
      0.17044533	     11.15251050	      8.14482205	      8.75758659	      3.76434181	      4.38163774	      4.72340999	      0.00000000	    167.34997565	    157.82890176	    311.60258591	    129.34832674	      8.10388848	      5.84383201	      4.03904552	      3.55007662	      5.97271684	      4.24723114	      3.17688169	    100.25292864	      5.25849790	      7.99907178	      6.00887829	     27.17727621	     18.10739780	      5.17373568	      3.59500325	      6.17288507	     58.52686460	     30.31911812	     32.67669914	     44.48612175	      0.00000000	      0.00000000	      0.00000000	      0.00000000	      0.00000000	      0.00000000	     40.72948257	      1.69855629	      1.69871492	     23.55851141	     40.44293027	     11.61435835	     11.15251050	      8.14482205	      8.75758659	      3.76434181	      4.38163774	      4.72340999	      0.00000000	      6.02630494	     11.89900416	     10.29737315	      2.14808074	      8.10388848	      5.84383201	      4.03904552	      3.55007662	      5.97271684	      5.32538778	      3.17688169	      2.21660002	      5.25849790	      7.99907178	      6.00887829	     27.17727621	     18.10739780	      5.17373568	      3.59500325	      6.17288507	     16.54087556	      0.00000000	      0.00000000	      0.00000000	     21.00719666	      9.90467774	     49.63185135	     50.37415239	      5.31078797	      4.74701147	     12.88983467	      6.88452706	     17.81223050	      2.79989635	      8.59869149	      2.70686935	     35.43071692	     35.43071692	     13.13988225	     13.13988225	     30.53518334	     30.53518334	      5.07009775	     40.31908574	      6.83704913	     -3.74867644	      0.15031512	      1.76921988	     -5.07009775	    -40.31908574	     -6.83704913	      1.18159776	     -0.31378260	      1.09842061	      0.90235511	      0.50044332	     -0.23146478	      0.10176629	     -0.01737489	      0.35972181	     -0.90235511	     -0.50044332	      0.23146478	     -0.01094777	      0.02065705	      0.00142639	   -278.56010752	   -575.81986909	    185.15054806	    -11.93529383	      8.91893912	      9.76670480	    278.56010752	    575.81986909	   -185.15054806	     84.94976970	     -5.36413166	    111.13949422	    -47.03320698	   -330.20188467	    -76.56760329	      9.88111507	     -3.39672707	      8.64832864	     47.03320698	    330.20188467	     76.56760329	    -38.88403728	      1.58650319	     16.97399330	     11.94368433	    -13.96287801	    237.16210192	    152.68897993	      0.00000000	      0.00000000	      0.00000000	      0.00000000	      0.00000000	      0.00000000	      0.00000000	      0.00000000	      0.00000001	      0.00000000
      0.17065511	     11.14290058	      8.13797929	      8.75014034	      3.76130946	      4.37832187	      4.71917231	      0.00000000	    167.68111309	    157.37857988	    311.28946513	    129.48209428	      8.09700139	      5.83916837	      4.04272945	      3.54703921	      5.96721182	      4.24440289	      3.17430436	    100.39313545	      5.25406369	      7.99231099	      6.00371956	     27.16467994	     18.09303580	      5.16947704	      3.59292712	      6.17021729	     58.71388943	     30.32545716	     32.67581598	     44.46967329	      0.00000000	      0.00000000	      0.00000000	      0.00000000	      0.00000000	      0.00000000	     40.76861056	      1.71284688	      1.72923243	     21.39132984	     40.56435239	     11.64536751	     11.14290058	      8.13797929	      8.75014034	      3.76130946	      4.37832187	      4.71917231	      0.00000000	      6.02091557	     11.88826817	     10.28888762	      2.14635845	      8.09700139	      5.83916837	      4.04272945	      3.54703921	      5.96721182	      5.32199225	      3.17430436	      2.21479150	      5.25406369	      7.99231099	      6.00371956	     27.16467994	     18.09303580	      5.16947704	      3.59292712	      6.17021729	     16.52491516	      0.00000000	      0.00000000	      0.00000000	     21.00071034	      9.90094131	     49.59122123	     50.35360070	      5.30564335	      4.74213671	     12.87798417	      6.87783235	     17.79945788	      2.79768346	      8.59154569	      2.70487500	     35.40211161	     35.40211161	     13.12841212	     13.12841212	     30.52479458	     30.52479458	      5.07234031	     40.28458039	      6.84187154	     -3.75016117	      0.15007344	      1.76872462	     -5.07234031	    -40.28458039	     -6.84187154	      1.18094061	     -0.31384797	      1.10030749	      0.92254027	      0.50845707	     -0.23763622	      0.10439493	     -0.01778085	      0.36778443	     -0.92254027	     -0.50845707	      0.23763622	     -0.01116028	      0.02116602	      0.00140984	   -281.85883158	   -576.87316950	    186.04557526	    -11.96293438	      8.99712448	      9.75656985	    281.85883158	    576.87316950	   -186.04557526	     85.33122062	     -5.42370098	    112.47644505	    -47.55901387	   -329.27669932	    -76.40985485	      9.85105981	     -3.40795897	      8.62549268	     47.55901387	    329.27669932	     76.40985485	    -38.79690003	      1.59798108	     17.19079978	     11.79496277	    -13.86414297	    240.08952873	    154.06464581	      0.00000000	      0.00000000	      0.00000000	      0.00000000	      0.00000000	      0.00000000	      0.00000000	      0.00000000	      0.00000001	      0.00000000
      0.17099145	     11.12753520	      8.12704869	      8.73824585	      3.75646544	      4.37302509	      4.71240290	      0.00000000	    168.20403167	    156.67224170	    310.80769767	    129.69216938	      8.08600010	      5.83171837	      4.04764440	      3.54218735	      5.95841814	      4.24010399	      3.17018725	    100.61274891	      5.24698062	      7.98151153	      5.99547922	     27.14455972	     18.07009541	      5.16267420	      3.58961099	      6.16591238	     59.00735055	     30.32537564	     32.66497532	     44.43604290	      0.00000000	      0.00000000	      0.00000000	      0.00000000	      0.00000000	      0.00000000	     40.83030910	      1.73533273	      1.77738259	     21.86703043	     40.74707691	     11.69635219	     11.12753520	      8.12704869	      8.73824585	      3.75646544	      4.37302509	      4.71240290	      0.00000000	      6.01230679	     11.87109881	     10.27533271	      2.14360717	      8.08600010	      5.83171837	      4.04764440	      3.54218735	      5.95841814	      5.31656802	      3.17018725	      2.21190252	      5.24698062	      7.98151153	      5.99547922	     27.14455972	     18.07009541	      5.16267420	      3.58961099	      6.16591238	     16.49941584	      0.00000000	      0.00000000	      0.00000000	     20.99021692	      9.89491131	     49.52614955	     50.32074570	      5.29736265	      4.73427705	     12.85904332	      6.86713293	     17.77902705	      2.79414879	      8.58022586	      2.70172658	     35.35641613	     35.35641613	     13.11009011	     13.11009011	     30.50820065	     30.50820065	      5.41343297	     40.13458224	      6.81309493	     -3.73505254	      0.15846479	      1.91011454	     -5.41343297	    -40.13458224	     -6.81309493	      1.17636100	     -0.32262118	      1.08993953	      0.95623978	      0.51166125	     -0.24570885	      0.10771895	     -0.01844229	      0.38135994	     -0.95623978	     -0.51166125	      0.24570885	     -0.01133672	      0.02194967	      0.00104028	   -287.28778826	   -578.36012074	    187.19374901	    -11.99758107	      9.11464343	      9.73153476	    287.28778826	    578.36012074	   -187.19374901	     85.82165691	     -5.51799772	    114.67920034	    -48.88852798	   -327.54237692	    -76.28189982	      9.80059646	     -3.44139694	      8.56667565	     48.88852798	    327.54237692	     76.28189982	    -38.70390129	      1.62800485	     17.74366516	     11.54166258	    -13.71885119	    244.78585349	    156.30190769	      0.00000000	      0.00000000	      0.00000000	      0.00000000	      0.00000000	      0.00000000	      0.00000000	      0.00000000	      0.00000001	      0.00000000
